<svg xmlns="http://www.w3.org/2000/svg" xmlns:xlink="http://www.w3.org/1999/xlink" width="500" zoomAndPan="magnify" viewBox="0 0 375 374.999991" height="500" preserveAspectRatio="xMidYMid meet" version="1.0"><defs><filter x="0%" y="0%" width="100%" height="100%" id="66d05b1367"><feColorMatrix values="0 0 0 0 1 0 0 0 0 1 0 0 0 0 1 0 0 0 1 0" color-interpolation-filters="sRGB"/></filter><clipPath id="bb9298ecf3"><path d="M 187.5 0 C 83.945312 0 0 83.945312 0 187.5 C 0 291.054688 83.945312 375 187.5 375 C 291.054688 375 375 291.054688 375 187.5 C 375 83.945312 291.054688 0 187.5 0 Z M 187.5 0 " clip-rule="nonzero"/></clipPath><clipPath id="d5c4ec93c7"><path d="M 215 59 L 270.679688 59 L 270.679688 313 L 215 313 Z M 215 59 " clip-rule="nonzero"/></clipPath><mask id="2073041918"><g filter="url(#66d05b1367)"><rect x="-37.5" width="450" fill="#000000" y="-37.499999" height="449.999989" fill-opacity="0.3"/></g></mask><clipPath id="b9fe59bdec"><path d="M 0.71875 0.640625 L 1.679688 0.640625 L 1.679688 2.558594 L 0.71875 2.558594 Z M 0.71875 0.640625 " clip-rule="nonzero"/></clipPath><clipPath id="5eaa10e0de"><rect x="0" width="2" y="0" height="3"/></clipPath><mask id="83adb1e093"><g filter="url(#66d05b1367)"><rect x="-37.5" width="450" fill="#000000" y="-37.499999" height="449.999989" fill-opacity="0.3"/></g></mask><clipPath id="88909bd60e"><path d="M 1 0.601562 L 21 0.601562 L 21 55 L 1 55 Z M 1 0.601562 " clip-rule="nonzero"/></clipPath><clipPath id="70c25b0802"><rect x="0" width="22" y="0" height="56"/></clipPath><mask id="eba7a01d0a"><g filter="url(#66d05b1367)"><rect x="-37.5" width="450" fill="#000000" y="-37.499999" height="449.999989" fill-opacity="0.3"/></g></mask><clipPath id="b624df5d9b"><path d="M 1 0.601562 L 20.679688 0.601562 L 20.679688 55 L 1 55 Z M 1 0.601562 " clip-rule="nonzero"/></clipPath><clipPath id="42a3e1f6ac"><rect x="0" width="21" y="0" height="56"/></clipPath><clipPath id="1c9536edfb"><path d="M 78.546875 187.5 L 296.796875 187.5 L 296.796875 263.25 L 78.546875 263.25 Z M 78.546875 187.5 " clip-rule="nonzero"/></clipPath><clipPath id="d5be4a6345"><path d="M 266 197 L 296.796875 197 L 296.796875 211 L 266 211 Z M 266 197 " clip-rule="nonzero"/></clipPath><clipPath id="1db42f29eb"><path d="M 78.546875 238 L 111 238 L 111 251 L 78.546875 251 Z M 78.546875 238 " clip-rule="nonzero"/></clipPath></defs><g clip-path="url(#bb9298ecf3)"><rect x="-37.5" width="450" fill="#ffffff" y="-37.499999" height="449.999989" fill-opacity="1"/></g><path fill="#4d433a" d="M 173.21875 165.320312 C 173.21875 178.402344 160.667969 269.371094 167.777344 302.40625 C 170.746094 316.210938 186.257812 314.410156 188.839844 302.40625 C 195.402344 271.921875 183.65625 243.863281 183.65625 164.605469 C 183.65625 153.753906 192.03125 153.472656 196.558594 139.472656 C 200.605469 126.972656 194.894531 59.652344 193.054688 59.652344 C 190.953125 59.652344 191.984375 117.949219 188.003906 117.949219 C 183.988281 117.949219 186.015625 60.441406 183.476562 59.652344 C 180.9375 58.859375 182.800781 117.949219 178.101562 117.949219 C 173.355469 117.949219 176.441406 59.652344 173.902344 59.652344 C 171.359375 59.652344 172.074219 117.949219 168.203125 117.949219 C 163.9375 117.949219 166.230469 59.652344 164.324219 59.652344 C 161.085938 59.652344 157.292969 122.964844 159.308594 136.339844 C 161.320312 149.710938 173.21875 152.246094 173.21875 165.328125 Z M 173.21875 165.320312 " fill-opacity="1" fill-rule="nonzero"/><g clip-path="url(#d5c4ec93c7)"><path fill="#4d433a" d="M 237.636719 162.519531 C 237.636719 242.113281 224.847656 274.472656 232.195312 302.574219 C 235.695312 315.960938 250.675781 314.382812 253.257812 302.574219 C 259.210938 275.351562 248.074219 240.503906 248.074219 162.519531 C 248.074219 153.441406 270.765625 155.003906 270.765625 123.976562 C 270.765625 85.144531 256.324219 59.429688 242.566406 59.429688 C 229.722656 59.429688 215.777344 87.617188 215.777344 123.976562 C 215.777344 153.109375 237.636719 155.039062 237.636719 162.519531 Z M 237.636719 162.519531 " fill-opacity="1" fill-rule="nonzero"/></g><path fill="#4d433a" d="M 117.105469 194.421875 C 117.105469 257.628906 104.316406 279.757812 111.664062 302.074219 C 115.164062 312.707031 130.144531 311.457031 132.726562 302.074219 C 138.679688 280.460938 127.542969 264.589844 127.542969 195.277344 C 127.542969 186.800781 140.015625 174.976562 140.015625 153.128906 C 140.015625 114.28125 134.359375 61.472656 122.035156 61.472656 C 110.21875 61.472656 112.921875 129.546875 112.921875 166.78125 C 112.921875 182.769531 117.105469 186.933594 117.105469 194.425781 Z M 117.105469 194.421875 " fill-opacity="1" fill-rule="nonzero"/><g mask="url(#2073041918)"><g transform="matrix(1, 0, 0, 1, 162, 110)"><g clip-path="url(#5eaa10e0de)"><g clip-path="url(#b9fe59bdec)"><path fill="#4d433a" d="M 1.535156 1.71875 C 1.511719 2.128906 1.316406 2.417969 1.105469 2.367188 C 0.894531 2.316406 0.746094 1.945312 0.769531 1.535156 C 0.796875 1.125 0.988281 0.832031 1.199219 0.882812 C 1.410156 0.933594 1.5625 1.308594 1.535156 1.71875 Z M 1.535156 1.71875 " fill-opacity="0.777" fill-rule="nonzero"/></g></g></g></g><g mask="url(#83adb1e093)"><g transform="matrix(1, 0, 0, 1, 168, 255)"><g clip-path="url(#70c25b0802)"><g clip-path="url(#88909bd60e)"><path fill="#4d433a" d="M 1.21875 46.972656 C 2.488281 52.695312 7.875 56.71875 13.4375 54.113281 C 19.601562 51.226562 20.484375 41.664062 20.527344 36.484375 C 20.601562 27.300781 19.640625 20.511719 18.53125 11.515625 C 18.1875 8.71875 17.632812 3.519531 17.066406 0.957031 C 17.050781 8.203125 18.183594 15.230469 16.828125 22.4375 C 14.816406 29.210938 17.054688 41.589844 10.570312 46.125 C 7.355469 48.375 1.578125 43.921875 1.21875 46.96875 Z M 1.21875 46.972656 " fill-opacity="1" fill-rule="nonzero"/></g></g></g></g><g mask="url(#eba7a01d0a)"><g transform="matrix(1, 0, 0, 1, 233, 255)"><g clip-path="url(#42a3e1f6ac)"><g clip-path="url(#b624df5d9b)"><path fill="#4d433a" d="M 1.058594 46.972656 C 2.328125 52.695312 7.714844 56.71875 13.273438 54.113281 C 19.441406 51.226562 20.324219 41.664062 20.367188 36.484375 C 20.441406 27.300781 19.480469 20.511719 18.371094 11.515625 C 18.027344 8.71875 17.46875 3.519531 16.90625 0.957031 C 16.890625 8.203125 18.023438 15.230469 16.667969 22.4375 C 14.65625 29.210938 16.894531 41.589844 10.410156 46.125 C 7.195312 48.375 1.417969 43.921875 1.058594 46.96875 Z M 1.058594 46.972656 " fill-opacity="1" fill-rule="nonzero"/></g></g></g></g><g clip-path="url(#1c9536edfb)"><path fill="#ff4c24" d="M 120.824219 187.609375 C 114.210938 187.609375 107.566406 188.003906 101.066406 188.773438 C 100.582031 188.894531 99.675781 189.058594 98.605469 189.242188 C 92.027344 190.382812 80.074219 192.453125 79.234375 200.886719 C 78.914062 215.992188 78.746094 224.449219 78.585938 238.882812 C 78.71875 238.808594 78.859375 238.738281 79.003906 238.664062 C 79.265625 238.535156 79.40625 238.460938 79.558594 238.394531 C 86.347656 235.328125 99.496094 234.6875 109.328125 234.6875 C 111.238281 234.6875 112.402344 234.714844 112.402344 234.714844 L 114.238281 234.761719 L 114.238281 234.785156 C 142.566406 235.265625 165.003906 242.320312 186.710938 249.148438 C 208.992188 256.15625 232.03125 263.402344 261.207031 263.402344 C 265.136719 263.402344 269.144531 263.273438 273.117188 263.015625 C 282.078125 261.949219 295.109375 257.933594 295.871094 252.335938 L 295.996094 237.941406 C 296.078125 229.304688 296.164062 220.40625 296.324219 211.011719 C 292.355469 212.863281 285.179688 213.804688 274.941406 213.804688 C 269.738281 213.800781 265.414062 213.550781 264.210938 213.472656 L 262.457031 213.351562 L 262.457031 213.09375 C 238.675781 211.75 216.984375 205.984375 196 200.410156 C 172.308594 194.117188 147.808594 187.609375 120.824219 187.609375 " fill-opacity="1" fill-rule="nonzero"/></g><path fill="#ff4c24" d="M 281.265625 197.574219 L 281.097656 190.175781 C 279.660156 190.09375 278.296875 190.050781 277.03125 190.050781 C 268.609375 190.050781 266.230469 191.988281 266.054688 192.507812 C 266.042969 192.679688 266.054688 192.910156 266.078125 193.136719 C 266.148438 193.636719 267.488281 195.542969 281.265625 197.574219 " fill-opacity="1" fill-rule="nonzero"/><path fill="#ff4c24" d="M 95.382812 251.765625 L 95.265625 258.695312 C 105.835938 258.613281 108.839844 256.636719 109.648438 255.773438 C 109.785156 255.628906 109.859375 255.503906 109.898438 255.429688 C 109.886719 255.335938 109.871094 255.234375 109.84375 255.125 C 109.582031 254.515625 107.871094 252.84375 95.382812 251.765625 " fill-opacity="1" fill-rule="nonzero"/><g clip-path="url(#d5be4a6345)"><path fill="#ff4c24" d="M 274.941406 210.128906 C 289.441406 210.128906 295.574219 208.199219 296.484375 206.394531 C 296.082031 205.828125 294.292969 203.460938 283.945312 201.707031 C 283.363281 201.605469 282.738281 201.507812 282.101562 201.414062 L 281.582031 201.335938 C 275.648438 200.484375 271.324219 199.605469 268.351562 198.636719 C 267.472656 198.347656 266.703125 198.054688 266.042969 197.742188 L 266.113281 209.90625 C 267.90625 209.996094 271.183594 210.128906 274.941406 210.128906 " fill-opacity="1" fill-rule="nonzero"/></g><g clip-path="url(#1db42f29eb)"><path fill="#ff4c24" d="M 89.050781 239.828125 C 84.546875 240.585938 79.464844 241.449219 78.597656 243.878906 L 78.65625 243.972656 C 78.964844 244.449219 81.097656 246.855469 92.746094 247.859375 L 93.777344 247.949219 C 102.007812 248.566406 107.175781 249.4375 110.085938 250.722656 L 110.457031 238.417969 C 103.894531 238.445312 97.269531 238.832031 90.613281 239.558594 L 89.050781 239.828125 " fill-opacity="1" fill-rule="nonzero"/></g></svg>